<?xml version="1.0" encoding="UTF-8" standalone="no"?>
<!DOCTYPE svg PUBLIC "-//W3C//DTD SVG 1.1//EN" "http://www.w3.org/Graphics/SVG/1.1/DTD/svg11.dtd">
<svg width="100%" height="100%" viewBox="0 0 1024 327" version="1.1" xmlns="http://www.w3.org/2000/svg" xmlns:xlink="http://www.w3.org/1999/xlink" xml:space="preserve" xmlns:serif="http://www.serif.com/" style="fill-rule:evenodd;clip-rule:evenodd;stroke-linejoin:round;stroke-miterlimit:2;">
    <g>
        <path d="M133.808,64.435C133.817,67.453 133.825,71.472 133.831,76.766L120.944,76.766L120.944,0.521L219.944,0.521L219.944,25.761C219.944,27.1 219.736,27.762 218.166,28.293C202.291,33.68 186.469,39.19 170.64,44.684C162.306,47.585 153.988,50.532 145.654,53.449C142.268,54.634 138.912,55.911 135.465,56.889C134.506,57.157 133.808,57.425 133.808,58.112L133.808,64.435ZM206.677,20.398L206.677,12.471L133.841,12.471L133.841,43.422L206.331,20.844C206.454,20.698 206.577,20.544 206.708,20.398L206.677,20.398Z" style="fill:white;"/>
        <path d="M659.436,0.451L758.467,0.482L758.467,76.443C757.844,76.496 733.073,76.627 721.353,76.535C720.115,76.462 718.932,75.999 717.975,75.211C712.029,70.358 706.129,65.434 700.275,60.436C691.895,53.31 665.585,30.909 660.845,26.808C660.116,26.211 659.635,25.362 659.498,24.43C659.398,16.519 659.436,8.608 659.436,0.451ZM745.401,64.653L745.401,12.479L671.38,12.479L671.38,18.512C671.38,18.512 724.6,64.684 725.778,64.684C731.934,64.869 739.029,64.684 745.439,64.684L745.401,64.653Z" style="fill:white;"/>
        <path d="M447.253,0.505C448.007,0.451 531.147,0.39 538.235,0.505L538.235,76.489L525.661,76.489L525.345,12.772L460.158,12.772L460.158,76.443L447.253,76.443L447.253,0.505Z" style="fill:white;"/>
        <path d="M886.266,76.766L886.266,12.672L872.778,12.479L850.069,56.342L818.432,56.342L795.654,12.71L782.627,12.71L782.627,76.473L769.653,76.473L769.653,0.598L804.442,0.598L826.651,43.53L842.682,43.422L864.121,0.382L899.018,0.459L899.018,76.766L886.266,76.766Z" style="fill:white;"/>
        <path d="M243.988,52.507L243.988,76.473L231.13,76.473L231.13,0.528L243.881,0.528L243.881,31.163L243.952,39.271L316.955,16.563L316.955,0.49L329.899,0.49L329.899,76.489L317.017,76.489L317.017,43.368L316.955,31.163L316.955,29.811L243.988,52.507Z" style="fill:white;"/>
        <path d="M605.427,12.264L605.427,76.489L592.299,76.489L592.299,12.364L549.42,12.364L549.42,0.536L648.243,0.536L648.243,12.264L605.427,12.264Z" style="fill:white;"/>
        <path d="M341.084,76.489L353.197,76.366L415.66,55.911C418.291,61.19 425.733,76.289 425.733,76.289L436.068,76.35L436.068,67.171C431.227,58.151 426.464,49.078 421.639,40.044C417.376,32.064 413.059,24.114 408.795,16.127C406.492,11.802 404.227,7.457 402,3.091C400.985,1.09 399.861,-0.11 397.229,0.013C391.296,0.282 385.348,0.013 379.407,0.159C378.445,0.251 377.571,0.764 377.022,1.56C370.142,14.103 363.37,26.7 356.537,39.267C351.435,48.655 346.379,58.074 341.092,67.362L341.084,76.489ZM408.595,43.076L359.238,62.145C364.978,51.233 379.692,23.445 385.463,12.479L392.528,12.479C398.361,23.507 402.87,32.218 408.611,43.068L408.595,43.076Z" style="fill:white;"/>
        <path d="M3.009,178.978C3.009,165.94 5.817,155.36 11.433,147.237C17.049,139.114 24.319,132.746 33.245,128.133C42.17,123.519 52.149,120.411 63.18,118.806C74.212,117.201 85.143,116.399 95.974,116.399C107.406,116.399 118.689,117.051 129.82,118.355C140.952,119.658 150.931,122.517 159.756,126.929C168.581,131.342 175.701,137.66 181.117,145.883C186.532,154.107 189.24,165.138 189.24,178.978L151.031,178.978C151.031,171.958 149.226,166.542 145.616,162.731C142.005,158.92 137.442,156.112 131.926,154.307C126.411,152.502 120.444,151.449 114.025,151.148C107.607,150.847 101.49,150.697 95.673,150.697C90.458,150.697 84.692,150.847 78.374,151.148C72.056,151.449 66.189,152.452 60.773,154.157C55.358,155.862 50.795,158.519 47.084,162.13C43.374,165.74 41.518,170.854 41.518,177.473C41.518,192.115 50.143,200.339 67.392,202.144L138.395,208.462C155.042,209.866 168.23,215.281 177.958,224.708C187.686,234.135 192.549,246.972 192.549,263.218C192.549,277.459 189.541,288.791 183.524,297.215C177.506,305.639 169.684,312.057 160.057,316.47C150.429,320.883 139.699,323.741 127.865,325.044C116.031,326.348 104.398,327 92.965,327C81.934,327 70.902,326.248 59.871,324.744C48.839,323.239 38.861,320.231 29.935,315.718C21.01,311.205 13.789,304.887 8.274,296.764C2.758,288.641 0,277.86 0,264.421L38.209,264.421C38.209,271.241 40.014,276.556 43.624,280.367C47.235,284.178 51.798,286.986 57.314,288.791C62.829,290.596 68.796,291.699 75.215,292.1C81.633,292.502 87.65,292.702 93.266,292.702C98.882,292.702 105.2,292.602 112.22,292.401C119.24,292.201 125.859,291.248 132.077,289.543C138.295,287.838 143.56,285.231 147.872,281.721C152.184,278.211 154.34,273.146 154.34,266.527C154.34,258.906 152.184,253.591 147.872,250.582C143.56,247.573 137.593,245.467 129.97,244.264L58.667,237.645C41.418,236.04 27.829,230.023 17.901,219.594C7.973,209.164 3.009,195.625 3.009,178.978Z" style="fill:white;"/>
        <path d="M247.306,151.9L247.306,327L207.592,327L207.592,116.399L331.546,116.399C342.377,116.399 352.205,118.104 361.03,121.514C369.855,124.923 377.377,129.687 383.595,135.804C389.812,141.922 394.626,149.293 398.036,157.918C401.445,166.542 403.15,176.17 403.15,186.8C403.15,198.032 400.944,207.76 396.531,215.983C392.119,224.207 386.252,230.976 378.931,236.291C371.61,241.606 363.236,245.568 353.81,248.175C344.383,250.783 334.655,252.086 324.626,252.086L263.3,252.086L289.821,216.585L324.927,216.585C336.56,216.585 345.536,214.178 351.854,209.364C358.172,204.551 361.331,197.03 361.331,186.8C361.331,174.565 357.971,165.69 351.252,160.174C344.533,154.658 335.257,151.9 323.423,151.9L247.306,151.9Z" style="fill:white;"/>
        <path d="M658.452,216.585L658.823,216.585L658.452,215.983L658.452,216.585Z" style="fill:white;"/>
        <path d="M658.452,151.9L658.452,327L618.738,327L618.738,116.399L742.692,116.399C753.523,116.399 763.351,118.104 772.176,121.514C781.001,124.923 788.523,129.687 794.741,135.804C800.958,141.922 805.772,149.293 809.182,157.918C812.592,166.542 814.296,176.17 814.296,186.8C814.296,198.032 812.09,207.76 807.678,215.983C803.265,224.207 797.398,230.976 790.077,236.291C782.756,241.606 774.383,245.568 764.956,248.175C762.575,248.833 760.176,249.409 757.757,249.901L814.296,327L766.46,327L684.955,216.585L736.073,216.585C747.706,216.585 756.682,214.178 763,209.364C769.318,204.551 772.477,197.03 772.477,186.8C772.477,174.565 769.118,165.69 762.398,160.174C755.679,154.658 746.403,151.9 734.569,151.9L658.452,151.9Z" style="fill:white;"/>
        <path d="M1023.4,116.399L937.954,209.665L1024,327L976.164,327L905.763,231.628L869.359,231.628L869.359,327L829.645,327L829.645,116.399L869.359,116.399L869.359,228.619L969.244,116.399L1023.4,116.399Z" style="fill:white;"/>
        <path d="M492.077,116.399L532.091,116.399L606.102,327L563.08,327L547.134,280.066L435.215,280.066L418.367,327L375.645,327L451.762,116.399L492.077,116.399L446.046,246.37L536.303,246.37L492.077,116.399Z" style="fill:white;"/>
    </g>
</svg>
